<?xml version="1.0" encoding="utf-8"?>
<!-- Generator: Adobe Illustrator 16.0.0, SVG Export Plug-In . SVG Version: 6.00 Build 0)  -->
<!DOCTYPE svg PUBLIC "-//W3C//DTD SVG 1.1//EN" "http://www.w3.org/Graphics/SVG/1.1/DTD/svg11.dtd">
<svg version="1.1" id="Layer_1" xmlns="http://www.w3.org/2000/svg" xmlns:xlink="http://www.w3.org/1999/xlink" x="0px" y="0px"
	 width="1024px" height="1024px" viewBox="0 0 1024 1024" enable-background="new 0 0 1024 1024" xml:space="preserve">
<g>
	<path fill-rule="evenodd" clip-rule="evenodd" d="M529.609,473.632c39.988-0.024,72.566,31.654,72.453,70.449
		c-0.117,39.976-33.077,72.177-73.58,71.887c-38.751-0.275-70.852-32.607-70.789-71.299
		C457.755,505.354,489.845,473.655,529.609,473.632z"/>
	<path fill-rule="evenodd" clip-rule="evenodd" d="M272.566,296.014c76.585,6.453,142.016,33.054,191.695,92.106
		c7.148,8.497,13.645,18.069,18.118,28.174c7.198,16.259-0.715,31.134-15.795,30.663c-5.428-0.167-13.185-3.85-15.677-8.288
		c-41.854-74.519-109.122-101.45-190.269-103.095c-4.391-0.091-8.912-0.019-13.132-1.026c-9.049-2.159-13.76-8.288-14.011-17.658
		c-0.25-9.331,3.94-16.438,12.918-18.436C255.251,296.492,264.568,296.678,272.566,296.014z"/>
	<path fill-rule="evenodd" clip-rule="evenodd" d="M825.52,316.315c0.008,11.709-7.329,18.357-20.47,19.315
		c-17.642,1.287-35.468,1.75-52.845,4.729c-59.729,10.249-105.227,42.585-139.168,92.149c-2.834,4.14-5.959,8.541-9.99,11.305
		c-7.233,4.957-15.09,3.931-21.844-1.487c-6.502-5.214-9.123-12.678-5.537-20.114c4.691-9.731,9.847-19.669,16.809-27.801
		c55.236-64.512,125.254-97.832,210.551-97.88C816.888,296.524,825.511,304.43,825.52,316.315z"/>
	<path fill-rule="evenodd" clip-rule="evenodd" d="M774.898,784.287c-69.514-3.872-130.642-27.964-179.949-78.468
		c-8.098-8.292-14.455-18.966-19.253-29.606c-4.894-10.852,0.237-21.751,9.444-26.098c9.373-4.424,16.035-0.812,24.681,9.695
		c38.55,46.845,86.86,77.106,148.024,84.236c12.15,1.419,24.507,1.085,36.77,1.483c12.063,0.396,20.182,7.476,20.68,18.155
		c0.52,11.145-7.508,19.774-19.629,20.526C788.869,784.633,782.026,784.287,774.898,784.287z"/>
	<path fill-rule="evenodd" clip-rule="evenodd" d="M272.759,783.798c-4.431,0-8.91,0.414-13.287-0.078
		c-11.954-1.345-18.721-8.604-18.454-19.253c0.276-11.032,7.909-17.789,19.995-18.959c23.674-2.297,47.846-2.767,70.832-8.163
		c49.549-11.632,89.578-38.895,119.067-80.895c6.163-8.777,15.88-10.99,25.124-5.986c9.404,5.094,13.904,17.006,7.891,27.44
		c-6.559,11.384-14.32,22.634-23.697,31.741c-45.052,43.747-100.276,65.712-161.95,72.868c-8.454,0.979-17,1.163-25.503,1.713
		C272.771,784.085,272.765,783.942,272.759,783.798z"/>
</g>
</svg>
