<?xml version="1.0" encoding="utf-8"?>
<!-- Generator: Adobe Illustrator 16.0.0, SVG Export Plug-In . SVG Version: 6.00 Build 0)  -->
<!DOCTYPE svg PUBLIC "-//W3C//DTD SVG 1.1//EN" "http://www.w3.org/Graphics/SVG/1.1/DTD/svg11.dtd">
<svg version="1.1" id="Layer_1" xmlns="http://www.w3.org/2000/svg" xmlns:xlink="http://www.w3.org/1999/xlink" x="0px" y="0px"
	 width="1024px" height="1024px" viewBox="0 0 1024 1024" enable-background="new 0 0 1024 1024" xml:space="preserve">
<path fill-rule="evenodd" clip-rule="evenodd" d="M808.168,620.094c-9.197-93.622-50.09-169.206-127.13-221.969
	c-98.059-67.159-202.604-73.989-307.246-17.169c-93.32,50.673-143.191,132.469-155.009,238.964
	c10.857-2.274,20.407-4.271,29.955-6.276c43.847-9.212,87.999-16.578,132.556-21.316c6.455-0.687,13.498-0.903,19.558,0.967
	c8.505,2.625,12.514,11.922,10.878,20.714c-1.61,8.654-8.731,15.051-17.573,15.93c-58.728,5.836-116.71,16.071-174.155,29.496
	c-5.018,1.173-10.061,2.494-15.166,2.984c-14.131,1.359-24.426-8.146-24.858-22.37c-0.724-23.804,2.484-47.185,7.579-70.343
	c10.875-49.431,31.96-94.087,63.221-133.889c51.594-65.689,118.014-107.957,200.112-124.003
	c72.24-14.119,141.75-4.664,208.022,27.905c36.291,17.836,68.368,41.352,95.999,70.725c35.907,38.172,62.104,82.239,77.633,132.419
	c9.557,30.883,15.043,62.423,14.588,94.883c-0.252,18.008-12.481,27.909-30.131,23.992c-13.483-2.992-26.893-6.336-40.421-9.106
	c-47.799-9.786-95.818-18.204-144.452-22.717c-10.574-0.98-18.112-10.829-17.147-21.989c0.859-9.931,10.873-17.715,21.901-16.639
	c11.593,1.132,23.229,2.16,34.71,4.057c36.109,5.964,72.17,12.231,108.216,18.573C788.945,615.524,797.959,617.849,808.168,620.094z
	"/>
<path fill-rule="evenodd" clip-rule="evenodd" d="M577.936,578.201c-0.041,35.954-28.802,64.869-64.839,64.425
	c-36.669-0.453-62.938-28.993-64.607-62.037c-1.788-35.364,28.076-67.959,66.355-67.345
	C549.157,513.795,577.977,543.048,577.936,578.201z"/>
</svg>
