<svg version="1.1" id="Layer_1" xmlns="http://www.w3.org/2000/svg" xmlns:xlink="http://www.w3.org/1999/xlink" x="0px" y="0px"
	 width="500px" height="500px" viewBox="0 0 500 500" enable-background="new 0 0 500 500" xml:space="preserve">
<g>
	<path fill-rule="evenodd" clip-rule="evenodd" d="M250.729,300.643c-32.343-0.063-56.927-27.609-53.25-59.697
		c2.379-20.77,20.431-39.792,42.011-43.714c20.602-3.744,38.688,1.641,52.727,17.329c17.354,19.391,16.734,49.613-1.246,68.621
		C280.012,294.766,266.602,300.511,250.729,300.643z M235.467,248.475c7.516-0.057,13.355-5.949,13.256-13.367
		c-0.1-7.387-6.025-13.261-13.451-13.333c-7.31-0.07-13.863,6.298-13.853,13.459C221.428,242.337,228.002,248.532,235.467,248.475z"
		/>
	<path fill-rule="evenodd" clip-rule="evenodd" d="M250.979,155.507c-51.28,0-92.855,41.575-92.855,92.859
		c0,51.285,41.575,92.856,92.855,92.856c51.29,0,92.863-41.571,92.863-92.856C343.842,197.083,302.269,155.507,250.979,155.507z
		 M250.98,327.482c-43.694,0-79.117-35.421-79.117-79.116c0-43.696,35.422-79.119,79.117-79.119
		c43.698,0,79.122,35.423,79.122,79.119C330.103,292.062,294.679,327.482,250.98,327.482z"/>
</g>
</svg>
